  0
SECTION
  2
HEADER
  9
$ACADVER
  1
AC1024
  9
$ACADMAINTVER
 70
6
  9
$DWGCODEPAGE
  3
ANSI_1252
  9
$LASTSAVEDBY
  1
ezdxf
  9
$INSBASE
 10
0.0
 20
0.0
 30
0.0
  9
$EXTMIN
 10
1e+20
 20
1e+20
 30
1e+20
  9
$EXTMAX
 10
-1e+20
 20
-1e+20
 30
-1e+20
  9
$LIMMIN
 10
0.0
 20
0.0
  9
$LIMMAX
 10
420.0
 20
297.0
  9
$ORTHOMODE
 70
0
  9
$REGENMODE
 70
1
  9
$FILLMODE
 70
1
  9
$QTEXTMODE
 70
0
  9
$MIRRTEXT
 70
1
  9
$LTSCALE
 40
1.0
  9
$ATTMODE
 70
1
  9
$TEXTSIZE
 40
2.5
  9
$TRACEWID
 40
1.0
  9
$TEXTSTYLE
  7
Standard
  9
$CLAYER
  8
0
  9
$CELTYPE
  6
ByLayer
  9
$CECOLOR
 62
256
  9
$CELTSCALE
 40
1.0
  9
$DISPSILH
 70
0
  9
$DIMSCALE
 40
1.0
  9
$DIMASZ
 40
2.5
  9
$DIMEXO
 40
0.625
  9
$DIMDLI
 40
3.75
  9
$DIMRND
 40
0.0
  9
$DIMDLE
 40
0.0
  9
$DIMEXE
 40
1.25
  9
$DIMTP
 40
0.0
  9
$DIMTM
 40
0.0
  9
$DIMTXT
 40
2.5
  9
$DIMCEN
 40
2.5
  9
$DIMTSZ
 40
0.0
  9
$DIMTOL
 70
0
  9
$DIMLIM
 70
0
  9
$DIMTIH
 70
0
  9
$DIMTOH
 70
0
  9
$DIMSE1
 70
0
  9
$DIMSE2
 70
0
  9
$DIMTAD
 70
1
  9
$DIMZIN
 70
8
  9
$DIMBLK
  1

  9
$DIMASO
 70
1
  9
$DIMSHO
 70
1
  9
$DIMPOST
  1

  9
$DIMAPOST
  1

  9
$DIMALT
 70
0
  9
$DIMALTD
 70
3
  9
$DIMALTF
 40
0.03937007874
  9
$DIMLFAC
 40
1.0
  9
$DIMTOFL
 70
1
  9
$DIMTVP
 40
0.0
  9
$DIMTIX
 70
0
  9
$DIMSOXD
 70
0
  9
$DIMSAH
 70
0
  9
$DIMBLK1
  1

  9
$DIMBLK2
  1

  9
$DIMSTYLE
  2
ISO-25
  9
$DIMCLRD
 70
0
  9
$DIMCLRE
 70
0
  9
$DIMCLRT
 70
0
  9
$DIMTFAC
 40
1.0
  9
$DIMGAP
 40
0.625
  9
$DIMJUST
 70
0
  9
$DIMSD1
 70
0
  9
$DIMSD2
 70
0
  9
$DIMTOLJ
 70
0
  9
$DIMTZIN
 70
8
  9
$DIMALTZ
 70
0
  9
$DIMALTTZ
 70
0
  9
$DIMUPT
 70
0
  9
$DIMDEC
 70
2
  9
$DIMTDEC
 70
2
  9
$DIMALTU
 70
2
  9
$DIMALTTD
 70
3
  9
$DIMTXSTY
  7
Standard
  9
$DIMAUNIT
 70
0
  9
$DIMADEC
 70
0
  9
$DIMALTRND
 40
0.0
  9
$DIMAZIN
 70
0
  9
$DIMDSEP
 70
44
  9
$DIMATFIT
 70
3
  9
$DIMFRAC
 70
0
  9
$DIMLDRBLK
  1

  9
$DIMLUNIT
 70
2
  9
$DIMLWD
 70
-2
  9
$DIMLWE
 70
-2
  9
$DIMTMOVE
 70
0
  9
$DIMFXL
 40
1.0
  9
$DIMFXLON
 70
0
  9
$DIMJOGANG
 40
0.785398163397
  9
$DIMTFILL
 70
0
  9
$DIMTFILLCLR
 70
0
  9
$DIMARCSYM
 70
0
  9
$DIMLTYPE
  6

  9
$DIMLTEX1
  6

  9
$DIMLTEX2
  6

  9
$DIMTXTDIRECTION
 70
0
  9
$LUNITS
 70
2
  9
$LUPREC
 70
4
  9
$SKETCHINC
 40
1.0
  9
$FILLETRAD
 40
10.0
  9
$AUNITS
 70
0
  9
$AUPREC
 70
2
  9
$MENU
  1
.
  9
$ELEVATION
 40
0.0
  9
$PELEVATION
 40
0.0
  9
$THICKNESS
 40
0.0
  9
$LIMCHECK
 70
0
  9
$CHAMFERA
 40
0.0
  9
$CHAMFERB
 40
0.0
  9
$CHAMFERC
 40
0.0
  9
$CHAMFERD
 40
0.0
  9
$SKPOLY
 70
0
  9
$TDCREATE
 40
2460995.0555092595
  9
$TDUCREATE
 40
2458532.153996898
  9
$TDUPDATE
 40
2460995.0555092595
  9
$TDUUPDATE
 40
2458532.1544311
  9
$TDINDWG
 40
0.0
  9
$TDUSRTIMER
 40
0.0
  9
$USRTIMER
 70
1
  9
$ANGBASE
 50
0.0
  9
$ANGDIR
 70
0
  9
$PDMODE
 70
0
  9
$PDSIZE
 40
0.0
  9
$PLINEWID
 40
0.0
  9
$SPLFRAME
 70
0
  9
$SPLINETYPE
 70
6
  9
$SPLINESEGS
 70
8
  9
$HANDSEED
  5
34
  9
$SURFTAB1
 70
6
  9
$SURFTAB2
 70
6
  9
$SURFTYPE
 70
6
  9
$SURFU
 70
6
  9
$SURFV
 70
6
  9
$UCSBASE
  2

  9
$UCSNAME
  2

  9
$UCSORG
 10
0.0
 20
0.0
 30
0.0
  9
$UCSXDIR
 10
1.0
 20
0.0
 30
0.0
  9
$UCSYDIR
 10
0.0
 20
1.0
 30
0.0
  9
$UCSORTHOREF
  2

  9
$UCSORTHOVIEW
 70
0
  9
$UCSORGTOP
 10
0.0
 20
0.0
 30
0.0
  9
$UCSORGBOTTOM
 10
0.0
 20
0.0
 30
0.0
  9
$UCSORGLEFT
 10
0.0
 20
0.0
 30
0.0
  9
$UCSORGRIGHT
 10
0.0
 20
0.0
 30
0.0
  9
$UCSORGFRONT
 10
0.0
 20
0.0
 30
0.0
  9
$UCSORGBACK
 10
0.0
 20
0.0
 30
0.0
  9
$PUCSBASE
  2

  9
$PUCSNAME
  2

  9
$PUCSORG
 10
0.0
 20
0.0
 30
0.0
  9
$PUCSXDIR
 10
1.0
 20
0.0
 30
0.0
  9
$PUCSYDIR
 10
0.0
 20
1.0
 30
0.0
  9
$PUCSORTHOREF
  2

  9
$PUCSORTHOVIEW
 70
0
  9
$PUCSORGTOP
 10
0.0
 20
0.0
 30
0.0
  9
$PUCSORGBOTTOM
 10
0.0
 20
0.0
 30
0.0
  9
$PUCSORGLEFT
 10
0.0
 20
0.0
 30
0.0
  9
$PUCSORGRIGHT
 10
0.0
 20
0.0
 30
0.0
  9
$PUCSORGFRONT
 10
0.0
 20
0.0
 30
0.0
  9
$PUCSORGBACK
 10
0.0
 20
0.0
 30
0.0
  9
$USERI1
 70
0
  9
$USERI2
 70
0
  9
$USERI3
 70
0
  9
$USERI4
 70
0
  9
$USERI5
 70
0
  9
$USERR1
 40
0.0
  9
$USERR2
 40
0.0
  9
$USERR3
 40
0.0
  9
$USERR4
 40
0.0
  9
$USERR5
 40
0.0
  9
$WORLDVIEW
 70
1
  9
$SHADEDGE
 70
3
  9
$SHADEDIF
 70
70
  9
$TILEMODE
 70
1
  9
$MAXACTVP
 70
64
  9
$PINSBASE
 10
0.0
 20
0.0
 30
0.0
  9
$PLIMCHECK
 70
0
  9
$PEXTMIN
 10
1e+20
 20
1e+20
 30
1e+20
  9
$PEXTMAX
 10
-1e+20
 20
-1e+20
 30
-1e+20
  9
$PLIMMIN
 10
0.0
 20
0.0
  9
$PLIMMAX
 10
420.0
 20
297.0
  9
$UNITMODE
 70
0
  9
$VISRETAIN
 70
1
  9
$PLINEGEN
 70
0
  9
$PSLTSCALE
 70
1
  9
$TREEDEPTH
 70
3020
  9
$CMLSTYLE
  2
Standard
  9
$CMLJUST
 70
0
  9
$CMLSCALE
 40
20.0
  9
$PROXYGRAPHICS
 70
1
  9
$MEASUREMENT
 70
1
  9
$CELWEIGHT
370
-1
  9
$ENDCAPS
280
0
  9
$JOINSTYLE
280
0
  9
$LWDISPLAY
290
0
  9
$INSUNITS
 70
6
  9
$HYPERLINKBASE
  1

  9
$STYLESHEET
  1

  9
$XEDIT
290
1
  9
$CEPSNTYPE
380
0
  9
$PSTYLEMODE
290
1
  9
$FINGERPRINTGUID
  2
{72018099-FCCC-47C7-9DAA-2599FB6C7073}
  9
$VERSIONGUID
  2
{87758862-1FA1-48AE-B421-449EB6870BA1}
  9
$EXTNAMES
290
1
  9
$PSVPSCALE
 40
0.0
  9
$OLESTARTUP
290
0
  9
$SORTENTS
280
127
  9
$INDEXCTL
280
0
  9
$HIDETEXT
280
1
  9
$XCLIPFRAME
280
1
  9
$HALOGAP
280
0
  9
$OBSCOLOR
 70
257
  9
$OBSLTYPE
280
0
  9
$INTERSECTIONDISPLAY
280
0
  9
$INTERSECTIONCOLOR
 70
257
  9
$DIMASSOC
280
2
  9
$PROJECTNAME
  1

  9
$CAMERADISPLAY
290
0
  9
$LENSLENGTH
 40
50.0
  9
$CAMERAHEIGHT
 40
0.0
  9
$STEPSPERSEC
 40
24.0
  9
$STEPSIZE
 40
100.0
  9
$3DDWFPREC
 40
2.0
  9
$PSOLWIDTH
 40
0.005
  9
$PSOLHEIGHT
 40
0.08
  9
$LOFTANG1
 40
1.570796326795
  9
$LOFTANG2
 40
1.570796326795
  9
$LOFTMAG1
 40
0.0
  9
$LOFTMAG2
 40
0.0
  9
$LOFTPARAM
 70
7
  9
$LOFTNORMALS
280
1
  9
$LATITUDE
 40
37.795
  9
$LONGITUDE
 40
-122.394
  9
$NORTHDIRECTION
 40
0.0
  9
$TIMEZONE
 70
-8000
  9
$LIGHTGLYPHDISPLAY
280
1
  9
$TILEMODELIGHTSYNCH
280
1
  9
$CMATERIAL
347
20
  9
$SOLIDHIST
280
0
  9
$SHOWHIST
280
1
  9
$DWFFRAME
280
2
  9
$DGNFRAME
280
2
  9
$REALWORLDSCALE
290
1
  9
$INTERFERECOLOR
 62
256
  9
$CSHADOW
280
0
  9
$SHADOWPLANELOCATION
 40
0.0
  0
ENDSEC
  0
SECTION
  2
CLASSES
  0
CLASS
  1
ACDBDICTIONARYWDFLT
  2
AcDbDictionaryWithDefault
  3
ObjectDBX Classes
 90
0
 91
0
280
0
281
0
  0
CLASS
  1
SUN
  2
AcDbSun
  3
SCENEOE
 90
1153
 91
0
280
0
281
0
  0
CLASS
  1
VISUALSTYLE
  2
AcDbVisualStyle
  3
ObjectDBX Classes
 90
4095
 91
0
280
0
281
0
  0
CLASS
  1
MATERIAL
  2
AcDbMaterial
  3
ObjectDBX Classes
 90
1153
 91
0
280
0
281
0
  0
CLASS
  1
SCALE
  2
AcDbScale
  3
ObjectDBX Classes
 90
1153
 91
0
280
0
281
0
  0
CLASS
  1
TABLESTYLE
  2
AcDbTableStyle
  3
ObjectDBX Classes
 90
4095
 91
0
280
0
281
0
  0
CLASS
  1
MLEADERSTYLE
  2
AcDbMLeaderStyle
  3
ACDB_MLEADERSTYLE_CLASS
 90
4095
 91
0
280
0
281
0
  0
CLASS
  1
DICTIONARYVAR
  2
AcDbDictionaryVar
  3
ObjectDBX Classes
 90
0
 91
0
280
0
281
0
  0
CLASS
  1
CELLSTYLEMAP
  2
AcDbCellStyleMap
  3
ObjectDBX Classes
 90
1152
 91
0
280
0
281
0
  0
CLASS
  1
MENTALRAYRENDERSETTINGS
  2
AcDbMentalRayRenderSettings
  3
SCENEOE
 90
1024
 91
0
280
0
281
0
  0
CLASS
  1
ACDBDETAILVIEWSTYLE
  2
AcDbDetailViewStyle
  3
ObjectDBX Classes
 90
1025
 91
0
280
0
281
0
  0
CLASS
  1
ACDBSECTIONVIEWSTYLE
  2
AcDbSectionViewStyle
  3
ObjectDBX Classes
 90
1025
 91
0
280
0
281
0
  0
CLASS
  1
RASTERVARIABLES
  2
AcDbRasterVariables
  3
ISM
 90
0
 91
0
280
0
281
0
  0
CLASS
  1
ACDBPLACEHOLDER
  2
AcDbPlaceHolder
  3
ObjectDBX Classes
 90
0
 91
0
280
0
281
0
  0
CLASS
  1
LAYOUT
  2
AcDbLayout
  3
ObjectDBX Classes
 90
0
 91
0
280
0
281
0
  0
ENDSEC
  0
SECTION
  2
TABLES
  0
TABLE
  2
VPORT
  5
8
330
0
100
AcDbSymbolTable
 70
1
  0
VPORT
  5
23
330
8
100
AcDbSymbolTableRecord
100
AcDbViewportTableRecord
  2
*Active
 70
0
 10
0.0
 20
0.0
 11
1.0
 21
1.0
 12
0.0
 22
0.0
 13
0.0
 23
0.0
 14
0.5
 24
0.5
 15
0.5
 25
0.5
 16
0.0
 26
0.0
 36
1.0
 17
0.0
 27
0.0
 37
0.0
 40
1000.0
 41
1.34
 42
50.0
 43
0.0
 44
0.0
 50
0.0
 51
0.0
 71
0
 72
1000
 73
1
 74
3
 75
0
 76
0
 77
0
 78
0
281
0
 65
0
146
0.0
  0
ENDTAB
  0
TABLE
  2
LTYPE
  5
2
330
0
100
AcDbSymbolTable
 70
3
  0
LTYPE
  5
24
330
2
100
AcDbSymbolTableRecord
100
AcDbLinetypeTableRecord
  2
ByBlock
 70
0
  3

 72
65
 73
0
 40
0.0
  0
LTYPE
  5
25
330
2
100
AcDbSymbolTableRecord
100
AcDbLinetypeTableRecord
  2
ByLayer
 70
0
  3

 72
65
 73
0
 40
0.0
  0
LTYPE
  5
26
330
2
100
AcDbSymbolTableRecord
100
AcDbLinetypeTableRecord
  2
Continuous
 70
0
  3

 72
65
 73
0
 40
0.0
  0
ENDTAB
  0
TABLE
  2
LAYER
  5
1
330
0
100
AcDbSymbolTable
 70
2
  0
LAYER
  5
27
330
1
100
AcDbSymbolTableRecord
100
AcDbLayerTableRecord
  2
0
 70
0
 62
7
  6
Continuous
370
-3
390
13
347
21
  0
LAYER
  5
28
330
1
100
AcDbSymbolTableRecord
100
AcDbLayerTableRecord
  2
Defpoints
 70
0
 62
7
  6
Continuous
290
0
370
-3
390
13
347
21
  0
ENDTAB
  0
TABLE
  2
STYLE
  5
5
330
0
100
AcDbSymbolTable
 70
1
  0
STYLE
  5
29
330
5
100
AcDbSymbolTableRecord
100
AcDbTextStyleTableRecord
  2
Standard
 70
0
 40
0.0
 41
1.0
 50
0.0
 71
0
 42
2.5
  3
txt
  4

  0
ENDTAB
  0
TABLE
  2
VIEW
  5
7
330
0
100
AcDbSymbolTable
 70
0
  0
ENDTAB
  0
TABLE
  2
UCS
  5
6
330
0
100
AcDbSymbolTable
 70
0
  0
ENDTAB
  0
TABLE
  2
APPID
  5
3
330
0
100
AcDbSymbolTable
 70
3
  0
APPID
  5
2A
330
3
100
AcDbSymbolTableRecord
100
AcDbRegAppTableRecord
  2
ACAD
 70
0
  0
APPID
  5
31
330
3
100
AcDbSymbolTableRecord
100
AcDbRegAppTableRecord
  2
HATCHBACKGROUNDCOLOR
 70
0
  0
APPID
  5
32
330
3
100
AcDbSymbolTableRecord
100
AcDbRegAppTableRecord
  2
EZDXF
 70
0
  0
ENDTAB
  0
TABLE
  2
DIMSTYLE
  5
4
330
0
100
AcDbSymbolTable
 70
1
100
AcDbDimStyleTable
  0
DIMSTYLE
105
2B
330
4
100
AcDbSymbolTableRecord
100
AcDbDimStyleTableRecord
  2
Standard
 70
0
 40
1.0
 41
2.5
 42
0.625
 43
3.75
 44
1.25
 45
0.0
 46
0.0
 47
0.0
 48
0.0
 49
2.5
140
2.5
141
2.5
142
0.0
143
0.03937007874
144
1.0
145
0.0
146
1.0
147
0.625
148
0.0
 69
0
 70
0
 71
0
 72
0
 73
0
 74
0
 75
0
 76
0
 77
1
 78
8
 79
3
170
0
171
3
172
1
173
0
174
0
175
0
176
0
177
0
178
0
179
2
271
2
272
2
273
2
274
3
275
0
276
0
277
2
278
44
279
0
280
0
281
0
282
0
283
0
284
8
285
0
286
0
288
0
289
3
290
0
371
-2
372
-2
  0
ENDTAB
  0
TABLE
  2
BLOCK_RECORD
  5
9
330
0
100
AcDbSymbolTable
 70
2
  0
BLOCK_RECORD
  5
17
330
9
100
AcDbSymbolTableRecord
100
AcDbBlockTableRecord
  2
*Model_Space
340
1A
 70
0
280
1
281
0
  0
BLOCK_RECORD
  5
1B
330
9
100
AcDbSymbolTableRecord
100
AcDbBlockTableRecord
  2
*Paper_Space
340
1E
 70
0
280
1
281
0
  0
ENDTAB
  0
ENDSEC
  0
SECTION
  2
BLOCKS
  0
BLOCK
  5
18
330
17
100
AcDbEntity
  8
0
100
AcDbBlockBegin
  2
*Model_Space
 70
0
 10
0.0
 20
0.0
 30
0.0
  3
*Model_Space
  1

  0
ENDBLK
  5
19
330
17
100
AcDbEntity
  8
0
100
AcDbBlockEnd
  0
BLOCK
  5
1C
330
1B
100
AcDbEntity
  8
0
100
AcDbBlockBegin
  2
*Paper_Space
 70
0
 10
0.0
 20
0.0
 30
0.0
  3
*Paper_Space
  1

  0
ENDBLK
  5
1D
330
1B
100
AcDbEntity
  8
0
100
AcDbBlockEnd
  0
ENDSEC
  0
SECTION
  2
ENTITIES
  0
LWPOLYLINE
  5
2F
330
17
100
AcDbEntity
  8
0
100
AcDbPolyline
 90
997
 70
0
 10
-0.48152434721970205
 20
0.043180086360172724
 10
-0.4792727379684707
 20
0.043180086360172724
 10
-0.4770211287172393
 20
0.043180086360172724
 10
-0.4747695194660079
 20
0.043180086360172724
 10
-0.4725179102147765
 20
0.043180086360172724
 10
-0.47026630096354516
 20
0.043180086360172724
 10
-0.46801469171231375
 20
0.043180086360172724
 10
-0.4657630824610824
 20
0.043180086360172724
 10
-0.46351147320985103
 20
0.043180086360172724
 10
-0.4612598639586196
 20
0.043180086360172724
 10
-0.45900825470738826
 20
0.043180086360172724
 10
-0.45675664545615685
 20
0.043180086360172724
 10
-0.4545050362049255
 20
0.043180086360172724
 10
-0.4522534269536941
 20
0.043180086360172724
 10
-0.4500018177024627
 20
0.043180086360172724
 10
-0.44775020845123137
 20
0.043180086360172724
 10
-0.44549859919999996
 20
0.043180086360172724
 10
-0.4432469899487686
 20
0.043180086360172724
 10
-0.4409953806975372
 20
0.043180086360172724
 10
-0.43874377144630583
 20
0.043180086360172724
 10
-0.4364921621950745
 20
0.043180086360172724
 10
-0.43424055294384306
 20
0.043180086360172724
 10
-0.4319889436926117
 20
0.043180086360172724
 10
-0.4297373344413803
 20
0.043180086360172724
 10
-0.42748572519014894
 20
0.043180086360172724
 10
-0.4252341159389176
 20
0.043180086360172724
 10
-0.42298250668768617
 20
0.043180086360172724
 10
-0.4207308974364548
 20
0.043180086360172724
 10
-0.4184792881852234
 20
0.043180086360172724
 10
-0.41622767893399204
 20
0.043180086360172724
 10
-0.41397606968276063
 20
0.043180086360172724
 10
-0.41172446043152927
 20
0.043180086360172724
 10
-0.40947285118029786
 20
0.043180086360172724
 10
-0.4072212419290665
 20
0.043180086360172724
 10
-0.40496963267783515
 20
0.043180086360172724
 10
-0.40271802342660373
 20
0.043180086360172724
 10
-0.4004664141753724
 20
0.043180086360172724
 10
-0.39821480492414096
 20
0.043180086360172724
 10
-0.3959631956729096
 20
0.043180086360172724
 10
-0.39371158642167825
 20
0.043180086360172724
 10
-0.39145997717044684
 20
0.043180086360172724
 10
-0.3892083679192155
 20
0.043180086360172724
 10
-0.38695675866798407
 20
0.043180086360172724
 10
-0.3847051494167527
 20
0.043180086360172724
 10
-0.38245354016552136
 20
0.043180086360172724
 10
-0.38020193091428994
 20
0.043180086360172724
 10
-0.37795032166305853
 20
0.043180086360172724
 10
-0.3756987124118272
 20
0.043180086360172724
 10
-0.3734471031605958
 20
0.043180086360172724
 10
-0.3711954939093644
 20
0.043180086360172724
 10
-0.36894388465813305
 20
0.043180086360172724
 10
-0.36669227540690164
 20
0.043180086360172724
 10
-0.3644406661556703
 20
0.043180086360172724
 10
-0.3621890569044389
 20
0.043180086360172724
 10
-0.3599374476532075
 20
0.043180086360172724
 10
-0.35768583840197615
 20
0.043180086360172724
 10
-0.35543422915074474
 20
0.043180086360172724
 10
-0.3531826198995134
 20
0.043180086360172724
 10
-0.350931010648282
 20
0.043180086360172724
 10
-0.3486794013970506
 20
0.043180086360172724
 10
-0.3464277921458192
 20
0.043180086360172724
 10
-0.34417618289458785
 20
0.043180086360172724
 10
-0.3419245736433565
 20
0.043180086360172724
 10
-0.33967296439212513
 20
0.043180086360172724
 10
-0.3374213551408937
 20
0.043180086360172724
 10
-0.3351697458896623
 20
0.043180086360172724
 10
-0.33291813663843095
 20
0.043180086360172724
 10
-0.3306665273871996
 20
0.043180086360172724
 10
-0.32841491813596824
 20
0.043180086360172724
 10
-0.3261633088847368
 20
0.043180086360172724
 10
-0.3239116996335054
 20
0.043180086360172724
 10
-0.32166009038227406
 20
0.043180086360172724
 10
-0.3194084811310427
 20
0.043180086360172724
 10
-0.3171568718798113
 20
0.043180086360172724
 10
-0.31490526262857993
 20
0.043180086360172724
 10
-0.3126536533773485
 20
0.043180086360172724
 10
-0.31040204412611716
 20
0.043180086360172724
 10
-0.3081504348748858
 20
0.043180086360172724
 10
-0.3058988256236544
 20
0.043180086360172724
 10
-0.303647216372423
 20
0.043180086360172724
 10
-0.3013956071211916
 20
0.043180086360172724
 10
-0.29914399786996027
 20
0.043180086360172724
 10
-0.2968923886187289
 20
0.043180086360172724
 10
-0.2946407793674975
 20
0.043180086360172724
 10
-0.2923891701162661
 20
0.043180086360172724
 10
-0.2901375608650347
 20
0.043180086360172724
 10
-0.28788595161380337
 20
0.043180086360172724
 10
-0.285634342362572
 20
0.043180086360172724
 10
-0.2833827331113406
 20
0.043180086360172724
 10
-0.2811311238601092
 20
0.043180086360172724
 10
-0.27887951460887783
 20
0.043180086360172724
 10
-0.2766279053576465
 20
0.043180086360172724
 10
-0.27437629610641506
 20
0.043180086360172724
 10
-0.2721246868551837
 20
0.043180086360172724
 10
-0.2698730776039523
 20
0.043180086360172724
 10
-0.26762146835272094
 20
0.043180086360172724
 10
-0.2653698591014896
 20
0.043180086360172724
 10
-0.26311824985025817
 20
0.043180086360172724
 10
-0.26086664059902676
 20
0.043180086360172724
 10
-0.2586150313477954
 20
0.043180086360172724
 10
-0.25636342209656404
 20
0.043180086360172724
 10
-0.2541118128453327
 20
0.043180086360172724
 10
-0.2518602035941013
 20
0.043180086360172724
 10
-0.2496085943428699
 20
0.043180086360172724
 10
-0.2473569850916385
 20
0.043180086360172724
 10
-0.24510537584040712
 20
0.043180086360172724
 10
-0.24285376658917576
 20
0.043180086360172724
 10
-0.24060215733794438
 20
0.043180086360172724
 10
-0.238350548086713
 20
0.043180086360172724
 10
-0.2360989388354816
 20
0.043180086360172724
 10
-0.23384732958425022
 20
0.043180086360172724
 10
-0.23159572033301884
 20
0.043180086360172724
 10
-0.22934411108178748
 20
0.043180086360172724
 10
-0.22709250183055607
 20
0.043180086360172724
 10
-0.2248408925793247
 20
0.043180086360172724
 10
-0.2225892833280933
 20
0.043180086360172724
 10
-0.22033767407686194
 20
0.043180086360172724
 10
-0.2180860648256306
 20
0.043180086360172724
 10
-0.21583445557439918
 20
0.043180086360172724
 10
-0.21358284632316782
 20
0.043180086360172724
 10
-0.2113312370719364
 20
0.043180086360172724
 10
-0.20907962782070505
 20
0.043180086360172724
 10
-0.2068280185694737
 20
0.043180086360172724
 10
-0.20457640931824228
 20
0.043180086360172724
 10
-0.20232480006701092
 20
0.043180086360172724
 10
-0.2000731908157795
 20
0.043180086360172724
 10
-0.19782158156454815
 20
0.043180086360172724
 10
-0.19556997231331674
 20
0.043180086360172724
 10
-0.19331836306208539
 20
0.043180086360172724
 10
-0.19106675381085403
 20
0.043180086360172724
 10
-0.18881514455962262
 20
0.043180086360172724
 10
-0.18656353530839126
 20
0.043180086360172724
 10
-0.18431192605715985
 20
0.043180086360172724
 10
-0.1820603168059285
 20
0.043180086360172724
 10
-0.17980870755469708
 20
0.043180086360172724
 10
-0.17755709830346572
 20
0.043180086360172724
 10
-0.17530548905223436
 20
0.043180086360172724
 10
-0.17305387980100295
 20
0.043180086360172724
 10
-0.1708022705497716
 20
0.043180086360172724
 10
-0.16855066129854018
 20
0.043180086360172724
 10
-0.16629905204730883
 20
0.043180086360172724
 10
-0.16404744279607747
 20
0.043180086360172724
 10
-0.16179583354484606
 20
0.043180086360172724
 10
-0.1595442242936147
 20
0.043180086360172724
 10
-0.1572926150423833
 20
0.043180086360172724
 10
-0.15504100579115193
 20
0.043180086360172724
 10
-0.15278939653992052
 20
0.043180086360172724
 10
-0.15053778728868916
 20
0.043180086360172724
 10
-0.1482861780374578
 20
0.043180086360172724
 10
-0.1460345687862264
 20
0.043180086360172724
 10
-0.14378295953499504
 20
0.043180086360172724
 10
-0.14153135028376362
 20
0.043180086360172724
 10
-0.13927974103253227
 20
0.043180086360172724
 10
-0.13702813178130085
 20
0.043180086360172724
 10
-0.1347765225300695
 20
0.043180086360172724
 10
-0.13252491327883814
 20
0.043180086360172724
 10
-0.13027330402760673
 20
0.043180086360172724
 10
-0.12802169477637537
 20
0.043180086360172724
 10
-0.12577008552514396
 20
0.043180086360172724
 10
-0.1235184762739126
 20
0.043180086360172724
 10
-0.12126686702268119
 20
0.043180086360172724
 10
-0.11901525777144983
 20
0.043180086360172724
 10
-0.11676364852021848
 20
0.043180086360172724
 10
-0.11451203926898706
 20
0.043180086360172724
 10
-0.11226043001775571
 20
0.043180086360172724
 10
-0.1100088207665243
 20
0.043180086360172724
 10
-0.10775721151529294
 20
0.043180086360172724
 10
-0.10550560226406158
 20
0.043180086360172724
 10
-0.10325399301283017
 20
0.043180086360172724
 10
-0.10100238376159881
 20
0.043180086360172724
 10
-0.0987507745103674
 20
0.043180086360172724
 10
-0.09649916525913604
 20
0.043180086360172724
 10
-0.09424755600790463
 20
0.043180086360172724
 10
-0.09199594675667327
 20
0.043180086360172724
 10
-0.08974433750544192
 20
0.043180086360172724
 10
-0.0874927282542105
 20
0.043180086360172724
 10
-0.08524111900297915
 20
0.043180086360172724
 10
-0.08298950975174774
 20
0.043180086360172724
 10
-0.08073790050051638
 20
0.043180086360172724
 10
-0.07848629124928497
 20
0.043180086360172724
 10
-0.07623468199805361
 20
0.043180086360172724
 10
-0.07398307274682225
 20
0.043180086360172724
 10
-0.07173146349559084
 20
0.043180086360172724
 10
-0.06947985424435948
 20
0.043180086360172724
 10
-0.06722824499312807
 20
0.043180086360172724
 10
-0.06497663574189672
 20
0.043180086360172724
 10
-0.06272502649066536
 20
0.043180086360172724
 10
-0.060473417239433946
 20
0.043180086360172724
 10
-0.05822180798820259
 20
0.043180086360172724
 10
-0.05597019873697118
 20
0.043180086360172724
 10
-0.05371858948573982
 20
0.043180086360172724
 10
-0.05146698023450841
 20
0.043180086360172724
 10
-0.04921537098327705
 20
0.043180086360172724
 10
-0.046963761732045695
 20
0.043180086360172724
 10
-0.04471215248081428
 20
0.043180086360172724
 10
-0.042460543229582925
 20
0.043180086360172724
 10
-0.04020893397835151
 20
0.043180086360172724
 10
-0.037957324727120156
 20
0.043180086360172724
 10
-0.035705715475888744
 20
0.043180086360172724
 10
-0.03345410622465736
 20
0.043180086360172724
 10
-0.03342288919325726
 20
0.04314886932877263
 10
-0.033391672161857164
 20
0.04311765229737252
 10
-0.03336045513045707
 20
0.043086435265972445
 10
-0.033329238099056975
 20
0.04305521823457234
 10
-0.03329802106765688
 20
0.043024001203172235
 10
-0.03326680403625678
 20
0.042992784171772144
 10
-0.03323558700485668
 20
0.04296156714037205
 10
-0.033204369973456584
 20
0.04293035010897195
 10
-0.03317315294205649
 20
0.04289913307757186
 10
-0.033141935910656395
 20
0.04286791604617177
 10
-0.0331107188792563
 20
0.04283669901477166
 10
-0.0330795018478562
 20
0.04280548198337156
 10
-0.0330482848164561
 20
0.042774264951971466
 10
-0.033017067785056003
 20
0.042743047920571375
 10
-0.03298585075365591
 20
0.04271183088917127
 10
-0.032954633722255815
 20
0.04268061385777118
 10
-0.03292341669085572
 20
0.04264939682637109
 10
-0.03289219965945562
 20
0.042618179794970984
 10
-0.03286098262805552
 20
0.04258696276357088
 10
-0.03282976559665542
 20
0.04255574573217079
 10
-0.03279854856525533
 20
0.0425245287007707
 10
-0.032767331533855235
 20
0.04249331166937059
 10
-0.03273611450245514
 20
0.0424620946379705
 10
-0.03270489747105504
 20
0.04243087760657041
 10
-0.03267368043965494
 20
0.042399660575170306
 10
-0.03264246340825485
 20
0.042368443543770215
 10
-0.03261124637685475
 20
0.042337226512370124
 10
-0.032580029345454654
 20
0.04230600948097002
 10
-0.03254881231405456
 20
0.042274792449569915
 10
-0.03251759528265446
 20
0.042243575418169824
 10
-0.03248637825125436
 20
0.04221235838676973
 10
-0.03245516121985427
 20
0.04218114135536963
 10
-0.03242394418845417
 20
0.04214992432396954
 10
-0.032392727157054074
 20
0.042118707292569446
 10
-0.032361510125653976
 20
0.04208749026116934
 10
-0.03233029309425388
 20
0.04205627322976924
 10
-0.03229907606285378
 20
0.042025056198369146
 10
-0.03226785903145369
 20
0.041993839166969055
 10
-0.03223664200005359
 20
0.04196262213556895
 10
-0.032205424968653494
 20
0.04193140510416886
 10
-0.032174207937253396
 20
0.04190018807276877
 10
-0.0321429909058533
 20
0.04186897104136866
 10
-0.0321117738744532
 20
0.04183775400996856
 10
-0.03208055684305311
 20
0.04180653697856848
 10
-0.03204933981165301
 20
0.04177531994716838
 10
-0.032018122780252914
 20
0.04174410291576827
 10
-0.031986905748852816
 20
0.04171288588436818
 10
-0.03195568871745272
 20
0.04168166885296809
 10
-0.03192447168605263
 20
0.041650451821567985
 10
-0.03189325465465253
 20
0.041619234790167894
 10
-0.03186203762325243
 20
0.041588017758767803
 10
-0.031830820591852334
 20
0.0415568007273677
 10
-0.031799603560452236
 20
0.041525583695967594
 10
-0.03176838652905214
 20
0.0414943666645675
 10
-0.03173716949765205
 20
0.04146314963316741
 10
-0.03170595246625195
 20
0.04143193260176731
 10
-0.03167473543485185
 20
0.041400715570367216
 10
-0.031643518403451754
 20
0.041369498538967125
 10
-0.031612301372051656
 20
0.04133828150756702
 10
-0.03158108434065156
 20
0.041307064476166916
 10
-0.03154986730925147
 20
0.04127584744476684
 10
-0.03151865027785137
 20
0.041244630413366734
 10
-0.03148743324645127
 20
0.04121341338196663
 10
-0.03145621621505117
 20
0.04118219635056654
 10
-0.031424999183651076
 20
0.04115097931916645
 10
-0.031393782152250985
 20
0.04111976228776634
 10
-0.03136256512085089
 20
0.04108854525636625
 10
-0.03133134808945079
 20
0.04105732822496616
 10
-0.03130013105805069
 20
0.041026111193566056
 10
-0.03126891402665059
 20
0.04099489416216595
 10
-0.0312376969952505
 20
0.04096367713076586
 10
-0.0312064799638504
 20
0.04093246009936577
 10
-0.031175262932450303
 20
0.040901243067965665
 10
-0.03114404590105021
 20
0.040870026036565574
 10
-0.03111282886965011
 20
0.04083880900516548
 10
-0.031081611838250013
 20
0.04080759197376538
 10
-0.03105039480684992
 20
0.04077637494236529
 10
-0.03101917777544982
 20
0.04074515791096518
 10
-0.030987960744049727
 20
0.04071394087956509
 10
-0.03095674371264963
 20
0.04068272384816499
 10
-0.03092552668124953
 20
0.040651506816764896
 10
-0.030894309649849433
 20
0.040620289785364805
 10
-0.03086309261844934
 20
0.0405890727539647
 10
-0.03083187558704924
 20
0.04055785572256461
 10
-0.030800658555649146
 20
0.04052663869116452
 10
-0.03076944152424905
 20
0.04049542165976441
 10
-0.03073822449284895
 20
0.04046420462836431
 10
-0.030707007461448856
 20
0.04043298759696422
 10
-0.03067579043004876
 20
0.04040177056556413
 10
-0.03064457339864866
 20
0.04037055353416402
 10
-0.030613356367248566
 20
0.04033933650276393
 10
-0.03058213933584847
 20
0.04030811947136384
 10
-0.03055092230444837
 20
0.040276902439963735
 10
-0.030519705273048276
 20
0.040245685408563645
 10
-0.030488488241648178
 20
0.04021446837716354
 10
-0.03045727121024808
 20
0.04018325134576345
 10
-0.030426054178847986
 20
0.040152034314363344
 10
-0.030394837147447888
 20
0.04012081728296325
 10
-0.03036362011604779
 20
0.04008960025156316
 10
-0.030332403084647696
 20
0.04005838322016306
 10
-0.030301186053247598
 20
0.040027166188762967
 10
-0.030269969021847504
 20
0.039995949157362876
 10
-0.030238751990447406
 20
0.03996473212596277
 10
-0.030207534959047308
 20
0.039933515094562666
 10
-0.03017631792764721
 20
0.039902298063162575
 10
-0.030145100896247116
 20
0.039871081031762484
 10
-0.030113883864847018
 20
0.03983986400036238
 10
-0.030082666833446924
 20
0.03980864696896229
 10
-0.030051449802046826
 20
0.0397774299375622
 10
-0.030020232770646728
 20
0.03974621290616209
 10
-0.029989015739246633
 20
0.039714995874762
 10
-0.029957798707846536
 20
0.0396837788433619
 10
-0.029926581676446438
 20
0.039652561811961806
 10
-0.029895364645046343
 20
0.0396213447805617
 10
-0.029864147613646246
 20
0.03959012774916161
 10
-0.029832930582246148
 20
0.03955891071776152
 10
-0.029801713550846053
 20
0.039527693686361415
 10
-0.029770496519445955
 20
0.039496476654961324
 10
-0.029739279488045858
 20
0.03946525962356122
 10
-0.029708062456645763
 20
0.03943404259216113
 10
-0.029676845425245665
 20
0.03940282556076102
 10
-0.029645628393845568
 20
0.03937160852936093
 10
-0.029614411362445473
 20
0.03934039149796084
 10
-0.029583194331045375
 20
0.03930917446656074
 10
-0.02955197729964528
 20
0.039277957435160646
 10
-0.029520760268245183
 20
0.039246740403760555
 10
-0.029489543236845085
 20
0.03921552337236045
 10
-0.029458326205444987
 20
0.039184306340960345
 10
-0.029427109174044893
 20
0.039153089309560254
 10
-0.029395892142644795
 20
0.039121872278160164
 10
-0.0293646751112447
 20
0.03909065524676006
 10
-0.029333458079844603
 20
0.03905943821535997
 10
-0.029302241048444505
 20
0.03902822118395988
 10
-0.029271024017044407
 20
0.03899700415255977
 10
-0.029239806985644313
 20
0.03896578712115968
 10
-0.029208589954244215
 20
0.038934570089759576
 10
-0.02917737292284412
 20
0.038903353058359486
 10
-0.029146155891444023
 20
0.03887213602695938
 10
-0.029114938860043925
 20
0.03884091899555929
 10
-0.02908372182864383
 20
0.0388097019641592
 10
-0.029052504797243733
 20
0.038778484932759094
 10
-0.029021287765843635
 20
0.038747267901359
 10
-0.02899007073444354
 20
0.03871605086995891
 10
-0.028958853703043443
 20
0.03868483383855881
 10
-0.028927636671643345
 20
0.0386536168071587
 10
-0.02889641964024325
 20
0.03862239977575861
 10
-0.028865202608843153
 20
0.03859118274435852
 10
-0.028833985577443058
 20
0.038559965712958416
 10
-0.02880276854604296
 20
0.038528748681558325
 10
-0.028771551514642862
 20
0.038497531650158234
 10
-0.028740334483242765
 20
0.03846631461875813
 10
-0.02870911745184267
 20
0.03843509758735804
 10
-0.028677900420442572
 20
0.038403880555957934
 10
-0.028646683389042478
 20
0.03837266352455784
 10
-0.02861546635764238
 20
0.03834144649315774
 10
-0.028584249326242282
 20
0.03831022946175765
 10
-0.028553032294842184
 20
0.038279012430357556
 10
-0.02852181526344209
 20
0.03824779539895745
 10
-0.028490598232041992
 20
0.03821657836755736
 10
-0.028459381200641898
 20
0.03818536133615727
 10
-0.0284281641692418
 20
0.038154144304757165
 10
-0.028396947137841702
 20
0.03812292727335706
 10
-0.028365730106441608
 20
0.03809171024195697
 10
-0.02833451307504151
 20
0.03806049321055688
 10
-0.028303296043641412
 20
0.038029276179156773
 10
-0.028272079012241318
 20
0.03799805914775668
 10
-0.02824086198084122
 20
0.03796684211635659
 10
-0.028209644949441122
 20
0.03793562508495649
 10
-0.028178427918041028
 20
0.037904408053556396
 10
-0.02814721088664093
 20
0.03787319102215629
 10
-0.028115993855240835
 20
0.0378419739907562
 10
-0.028084776823840737
 20
0.037810756959356095
 10
-0.02805355979244064
 20
0.037779539927956005
 10
-0.028022342761040542
 20
0.037748322896555914
 10
-0.027991125729640447
 20
0.03771710586515581
 10
-0.02795990869824035
 20
0.03768588883375572
 10
-0.027928691666840255
 20
0.03765467180235563
 10
-0.027897474635440157
 20
0.03762345477095552
 10
-0.02786625760404006
 20
0.03759223773955542
 10
-0.02783504057263996
 20
0.03756102070815533
 10
-0.027803823541239867
 20
0.037529803676755236
 10
-0.02777260650983977
 20
0.03749858664535513
 10
-0.027741389478439675
 20
0.03746736961395504
 10
-0.027710172447039577
 20
0.03743615258255495
 10
-0.02767895541563948
 20
0.037404935551154844
 10
-0.027647738384239385
 20
0.03737371851975475
 10
-0.027616521352839287
 20
0.03734250148835465
 10
-0.02758530432143919
 20
0.03731128445695456
 10
-0.027554087290039095
 20
0.03728006742555445
 10
-0.027522870258638997
 20
0.03724885039415436
 10
-0.0274916532272389
 20
0.03721763336275427
 10
-0.027460436195838805
 20
0.037186416331354166
 10
-0.027429219164438707
 20
0.037155199299954075
 10
-0.027398002133038613
 20
0.037123982268553984
 10
-0.027366785101638515
 20
0.03709276523715388
 10
-0.027335568070238417
 20
0.037061548205753775
 10
-0.02730435103883832
 20
0.037030331174353684
 10
-0.027273134007438225
 20
0.03699911414295359
 10
-0.027241916976038127
 20
0.03696789711155349
 10
-0.027241916976038127
 20
0.036967897111553495
 10
-0.0271341887472552
 20
0.03686059321958447
 10
-0.027026037859699373
 20
0.03675371533586062
 10
-0.026917465997995212
 20
0.03664726512517742
 10
-0.026808474853324656
 20
0.03654124424566867
 10
-0.02669906612340066
 20
0.03643565434878066
 10
-0.026589241512440718
 20
0.03633049707924639
 10
-0.02647900273114036
 20
0.036225774075060016
 10
-0.026368351496646503
 20
0.036121486967451336
 10
-0.026257289532530637
 20
0.03601763738086028
 10
-0.02614581856876209
 20
0.035914226932911755
 10
-0.026033940341680963
 20
0.035811257234390347
 10
-0.02592165659397118
 20
0.03570872988921526
 10
-0.025808969074633304
 20
0.035606646494415334
 10
-0.02569587953895725
 20
0.03550500864010415
 10
-0.025582389748495037
 20
0.03540381790945529
 10
-0.02546850147103328
 20
0.035303075878677696
 10
-0.02535421648056564
 20
0.035202784116991015
 10
-0.025239536557265276
 20
0.03510294418660127
 10
-0.025124463487457043
 20
0.0350035576426765
 10
-0.02500899906358966
 20
0.034904626033322464
 10
-0.02489314508420785
 20
0.03480615089955862
 10
-0.024776903353924296
 20
0.034708133775294095
 10
-0.02466027568339149
 20
0.03461057618730373
 10
-0.0245432638892736
 20
0.03451347965520439
 10
-0.02442586979421813
 20
0.03441684569143125
 10
-0.024308095226827524
 20
0.03432067580121419
 10
-0.024189942021630724
 20
0.03422497148255445
 10
-0.024071412019054533
 20
0.034129734226201205
 10
-0.023952507065395003
 20
0.0340349655156284
 10
-0.023833229012788667
 20
0.033940666827011634
 10
-0.02371357971918363
 20
0.03384683962920512
 10
-0.023593561048310722
 20
0.03375348538371887
 10
-0.023473174869654414
 20
0.033660605544695896
 10
-0.02335242305842366
 20
0.03356820155888956
 10
-0.023231307495522782
 20
0.03347627486564103
 10
-0.023109830067522107
 20
0.0333848268968569
 10
-0.02298799266662857
 20
0.03329385907698683
 10
-0.022865797190656293
 20
0.0332033728230014
 10
-0.022743245542997
 20
0.03311336954437004
 10
-0.02262033963259033
 20
0.03302385064303902
 10
-0.022497081373894168
 20
0.032934817513409674
 10
-0.022373472686854783
 20
0.032846271542316674
 10
-0.02224951549687691
 20
0.03275821410900639
 10
-0.022125211734793825
 20
0.03267064658511543
 10
-0.022000563336837163
 20
0.03258357033464927
 10
-0.02187557224460688
 20
0.032496986713961035
 10
-0.0217502404050409
 20
0.0324108970717303
 10
-0.021624569770384888
 20
0.032325302748942186
 10
-0.021498562298161723
 20
0.03224020507886636
 10
-0.02137221995114114
 20
0.03215560538703635
 10
-0.021245544697309025
 20
0.03207150499122887
 10
-0.021118538509836866
 20
0.031987905201443276
 10
-0.020991203367050997
 20
0.03190480731988121
 10
-0.020863541252401693
 20
0.031822212640926245
 10
-0.020735554154432397
 20
0.03174012245112378
 10
-0.020607244066748697
 20
0.03165853802916099
 10
-0.02047861298798721
 20
0.03157746064584688
 10
-0.02034966292178457
 20
0.03149689156409252
 10
-0.020220395876746133
 20
0.03141683203889138
 10
-0.02009081386641469
 20
0.03133728331729972
 10
-0.019960918909239143
 20
0.03125824663841726
 10
-0.01983071302854307
 20
0.031179723233367797
 10
-0.01970019825249313
 20
0.031101714325280055
 10
-0.019569376614067574
 20
0.031024221129268677
 10
-0.019438250151024516
 20
0.03094724485241522
 10
-0.019306820905870183
 20
0.030870786693749395
 10
-0.019175090925827164
 20
0.030794847844230415
 10
-0.019043062262802425
 20
0.030719429486728365
 10
-0.018910736973355446
 20
0.03064453279600588
 10
-0.018778117118666143
 20
0.03057015893869977
 10
-0.018645204764502717
 20
0.030496309073302856
 10
-0.01851200198118956
 20
0.030422984350145968
 10
-0.018378510843574974
 20
0.030350185911379973
 10
-0.018244733430998798
 20
0.030277914890958033
 10
-0.0181106718272601
 20
0.030206172414617892
 10
-0.017976328120584698
 20
0.030134959599864397
 10
-0.017841704403592572
 20
0.030064277555952028
 10
-0.017706802773265348
 20
0.029994127383867683
 10
-0.01757162533091361
 20
0.029924510176313493
 10
-0.01743617418214411
 20
0.02985542701768977
 10
-0.017300451436827072
 20
0.029786878984078204
 10
-0.017164459209063267
 20
0.029718867143225025
 10
-0.017028199617151043
 20
0.029651392554524376
 10
-0.01689167478355344
 20
0.029584456269001885
 10
-0.01675488683486501
 20
0.02951805932929818
 10
-0.016617837901778783
 20
0.02945220276965274
 10
-0.01648053011905305
 20
0.029386887615887758
 10
-0.016342965625478045
 20
0.029322114885392124
 10
-0.01620514656384275
 20
0.029257885587105646
 10
-0.01606707508090145
 20
0.029194200721503284
 10
-0.01592875332734024
 20
0.029131061280579573
 10
-0.015790183457743655
 20
0.02906846824783319
 10
-0.015651367630561
 20
0.02900642259825162
 10
-0.015512308008072762
 20
0.028944925298295975
 10
-0.015373006756356963
 20
0.02888397730588592
 10
-0.015233466045255366
 20
0.02882357957038479
 10
-0.015093688048339698
 20
0.028763733032584768
 10
-0.014953674942877816
 20
0.028704438624692255
 10
-0.014813428909799753
 20
0.028645697270313318
 10
-0.014672952133663769
 20
0.028587509884439345
 10
-0.014532246802622334
 20
0.02852987737343276
 10
-0.01439131510838801
 20
0.028472800635012917
 10
-0.014250159246199337
 20
0.028416280558242107
 10
-0.014108781414786643
 20
0.02836031802351173
 10
-0.013967183816337773
 20
0.028304913902528574
 10
-0.013825368656463796
 20
0.028250069058301207
 10
-0.013683338144164668
 20
0.02819578434512658
 10
-0.01354109449179479
 20
0.028142060608576693
 10
-0.013398639915028569
 20
0.02808889868548544
 10
-0.013255976632825892
 20
0.02803629940393554
 10
-0.013113106867397592
 20
0.027984263583245683
 10
-0.012970032844170795
 20
0.027932792033957737
 10
-0.012826756791754268
 20
0.027881885557824143
 10
-0.012683280941903708
 20
0.027831544947795397
 10
-0.012539607529487004
 20
0.027781770988007735
 10
-0.012395738792449373
 20
0.027732564453770897
 10
-0.01225167697177853
 20
0.027683926111556054
 10
-0.012107424311469805
 20
0.02763585671898386
 10
-0.011962983058491137
 20
0.027588357024812667
 10
-0.0118183554627481
 20
0.027541427768926867
 10
-0.011673543777048882
 20
0.02749506968232534
 10
-0.011528550257069144
 20
0.027449283487110086
 10
-0.011383377161316911
 20
0.027404069896474974
 10
-0.011238026751097417
 20
0.027359429614694633
 10
-0.011092501290477818
 20
0.027315363337113492
 10
-0.010946803046251985
 20
0.027271871750134916
 10
-0.01080093428790518
 20
0.027228955531210554
 10
-0.01065489728757866
 20
0.027186615348829768
 10
-0.010508694320034363
 20
0.027144851862509214
 10
-0.010362327662619429
 20
0.027103665722782583
 10
-0.010215799595230697
 20
0.02706305757119045
 10
-0.010069112400279271
 20
0.027023028040270312
 10
-0.009922268362654897
 20
0.026983577753546706
 10
-0.009775269769690396
 20
0.026944707325521483
 10
-0.009628118911126067
 20
0.026906417361664298
 10
-0.00948081807907396
 20
0.026868708458403126
 10
-0.009333369567982207
 20
0.026831581203114963
 10
-0.009185775674599309
 20
0.026795036174116736
 10
-0.009038038697938297
 20
0.026759073940656235
 10
-0.008890160939240964
 20
0.026723695062903258
 10
-0.008742144701942027
 20
0.026688900091940936
 10
-0.008593992291633212
 20
0.026654689569757077
 10
-0.008445706016027357
 20
0.02662106402923576
 10
-0.00829728818492249
 20
0.026588023994149043
 10
-0.00814874111016581
 20
0.026555569979148784
 10
-0.00800006710561769
 20
0.026523702489758633
 10
-0.007851268487115669
 20
0.02649242202236616
 10
-0.007702347572438298
 20
0.02646172906421511
 10
-0.007553306681269146
 20
0.02643162409339784
 10
-0.007404148135160571
 20
0.026402107578847846
 10
-0.007254874257497601
 20
0.026373179980332465
 10
-0.007105487373461761
 20
0.026344841748445723
 10
-0.006955989809994811
 20
0.026317093324601318
 10
-0.006806383895762519
 20
0.026289935141025705
 10
-0.006656671961118416
 20
0.026263367620751432
 10
-0.006506856338067449
 20
0.026237391177610488
 10
-0.0063569393602296775
 20
0.026212006216227893
 10
-0.006206923362803952
 20
0.026187213132015386
 10
-0.006056810682531487
 20
0.026163012311165253
 10
-0.005906603657659486
 20
0.026139404130644327
 10
-0.005756304627904751
 20
0.02611638895818811
 10
-0.00560591593441718
 20
0.02609396715229506
 10
-0.005455439919743331
 20
0.02607213906222098
 10
-0.005304878927789964
 20
0.026050905027973602
 10
-0.005154235303787434
 20
0.026030265380307255
 10
-0.005003511394253279
 20
0.026010220440717755
 10
-0.004852709546955612
 20
0.025990770521437404
 10
-0.0047018321108765
 20
0.02597191592543005
 10
-0.004550881436175491
 20
0.025953656946386475
 10
-0.0043998598741529045
 20
0.02593599386871972
 10
-0.004248769777213245
 20
0.025918926967560728
 10
-0.004097613498828585
 20
0.02590245650875403
 10
-0.003946393393501856
 20
0.02588658274885359
 10
-0.003795111816730195
 20
0.02587130593511882
 10
-0.0036437711249682823
 20
0.02585662630551077
 10
-0.0034923736755915835
 20
0.02584254408868835
 10
-0.003340921826859656
 20
0.025829059504004798
 10
-0.0031894179378794403
 20
0.02581617276150429
 10
-0.0030378643685684626
 20
0.02580388406191863
 10
-0.0028862634796181
 20
0.02579219359666414
 10
-0.0027346176324568442
 20
0.025781101547838685
 10
-0.0025829291892134217
 20
0.02577060808821882
 10
-0.002431200512680116
 20
0.02576071338125712
 10
-0.0022794339662759074
 20
0.0257514175810796
 10
-0.002127631914009608
 20
0.02574272083248335
 10
-0.0019757967204431536
 20
0.025734623270934266
 10
-0.0018239307506546733
 20
0.025727125022564933
 10
-0.0016720363702016853
 20
0.025720226204172664
 10
-0.001520115945084276
 20
0.025713926923217695
 10
-0.0013681718417081943
 20
0.025708227277821495
 10
-0.0012162064268480153
 20
0.02570312735676522
 10
-0.001064222067610301
 20
0.02569862723948839
 10
-0.0009122211313966764
 20
0.025694726996087575
 10
-0.0007602059858669805
 20
0.025691426687315368
 10
-0.0006081789989024105
 20
0.025688726364579403
 10
-0.0004561425385685872
 20
0.02568662606994157
 10
-0.00030409897307869503
 20
0.025685125836117338
 10
-0.00015205067075661777
 20
0.02568422568647527
 10
2.3590302988864712e-18
 20
0.02568392563503665
 10
1.846670632279957e-05
 20
0.02568394301402562
 10
3.693334722429932e-05
 20
0.025683995150930956
 10
5.539985728342586e-05
 20
0.025684082045567956
 10
7.386617107957526e-05
 20
0.025684203697628784
 10
9.23322231928389e-05
 20
0.025684360106682465
 10
0.00011079794820422864
 20
0.025684551272174894
 10
0.00012926328069592173
 20
0.025684777193428838
 10
0.000147728155251486
 20
0.025685037869643934
 10
0.00016619250645610496
 20
0.025685333299896695
 10
0.00018465626889682283
 20
0.02568566348314051
 10
0.00020311937716276958
 20
0.025686028418205657
 10
0.00022158176584538607
 20
0.025686428103799286
 10
0.0002400433695386691
 20
0.02568686253850545
 10
0.0002585041228393963
 20
0.025687331720785092
 10
0.00027696396034735147
 20
0.02568783564897606
 10
0.00029542281666557153
 20
0.025688374321293103
 10
0.00031388062640056054
 20
0.025688947735827892
 10
0.00033233732416253686
 20
0.025689555890549012
 10
0.00035079284456565835
 20
0.02569019878330197
 10
0.00036924712222824707
 20
0.02569087641180922
 10
0.00038770009177303437
 20
0.025691588773670157
 10
0.00040615168782738586
 20
0.02569233586636111
 10
0.0004246018450235262
 20
0.025693117687235402
 10
0.0004430504979987843
 20
0.025693934233523286
 10
0.00046149758139581783
 20
0.025694785502332028
 10
0.0004799430298628383
 20
0.02569567149064586
 10
0.0004983867780538561
 20
0.025696592195326034
 10
0.0005168287606289047
 20
0.0256975476131108
 10
0.0005352689122542664
 20
0.02569853774061543
 10
0.0005537071676027161
 20
0.02569956257433225
 10
0.000572143461353747
 20
0.025700622110630608
 10
0.0005905777281937947
 20
0.02570171634575693
 10
0.0006090099028164819
 20
0.025702845275834715
 10
0.0006274399199228439
 20
0.025704008896864538
 10
0.0006458677142215523
 20
0.025705207204724086
 10
0.00066429322042916
 20
0.025706440195168156
 10
0.0006827163732703259
 20
0.025707707863828685
 10
0.0007011371074780395
 20
0.025709010206214744
 10
0.0007195553577938672
 20
0.025710347217712586
 10
0.000737971058968167
 20
0.025711718893585617
 10
0.0007563841457603332
 20
0.02571312522897446
 10
0.0007747945529390228
 20
0.02571456621889694
 10
0.0007932022152823786
 20
0.025716041858248124
 10
0.0008116070675782746
 20
0.025717552141800312
 10
0.0008300090446245392
 20
0.025719097064203087
 10
0.0008484080812291806
 20
0.025720676619983306
 10
0.0008668041122106309
 20
0.025722290803545135
 10
0.0008851970723979693
 20
0.025723939609170073
 10
0.000903586896631148
 20
0.025725623031016956
 10
0.0009219735197612349
 20
0.025727341063121988
 10
0.0009403568766506383
 20
0.02572909369939876
 10
0.0009587369021733317
 20
0.025730880933638275
 10
0.0009771135312150964
 20
0.025732702759508973
 10
0.0009954866986737465
 20
0.02573455917055673
 10
0.001013856339459353
 20
0.025736450160204913
 10
0.0010322223884944872
 20
0.025738375721754386
 10
0.0010505847807144445
 20
0.025740335848383533
 10
0.0010689434510674687
 20
0.02574233053314829
 10
0.0010872983345149953
 20
0.025744359768982164
 10
0.0011056493660318762
 20
0.025746423548696253
 10
0.0011239964806066024
 20
0.025748521864979286
 10
0.0011423396132415498
 20
0.025750654710397634
 10
0.0011606786989531923
 20
0.02575282207739535
 10
0.0011790136727723476
 20
0.025755023958294182
 10
0.0011973444697444004
 20
0.025757260345293614
 10
0.0012156710249295257
 20
0.02575953123047088
 10
0.0012339932734029323
 20
0.025761836605780998
 10
0.0012523111502550862
 20
0.025764176463056808
 10
0.0012706245905919347
 20
0.025766550794008983
 10
0.0012889335295351479
 20
0.02576895959022607
 10
0.0013072379022223426
 20
0.025771402843174522
 10
0.0013255376438073073
 20
0.025773880544198713
 10
0.0013438326894602416
 20
0.02577639268452099
 10
0.0013621229743679825
 20
0.025778939255241683
 10
0.0013804084337342255
 20
0.025781520247339165
 10
0.001398689002779768
 20
0.025784135651669836
 10
0.0014169646167427326
 20
0.025786785458968217
 10
0.0014352352108787888
 20
0.025789469659846923
 10
0.001453500720461397
 20
0.02579218824479675
 10
0.0014717610807820298
 20
0.025794941204186662
 10
0.0014900162271503958
 20
0.025797728528263852
 10
0.001508266094894681
 20
0.02580055020715378
 10
0.0015265106193617722
 20
0.025803406230860186
 10
0.0015447497359174786
 20
0.025806296589265143
 10
0.0015629833799467772
 20
0.02580922127212909
 10
0.001581211486854023
 20
0.025812180269090865
 10
0.001599433992063194
 20
0.025815173569667737
 10
0.0016176508310181104
 20
0.025818201163255453
 10
0.0016358619391826693
 20
0.025821263039128278
 10
0.0016540672520410625
 20
0.025824359186439015
 10
0.0016722667050980218
 20
0.02582748959421906
 10
0.0016904602338790294
 20
0.02583065425137844
 10
0.0017086477739305618
 20
0.025833853146705842
 10
0.0017268292608203118
 20
0.02583708626886866
 10
0.0017450046301374091
 20
0.02584035360641303
 10
0.0017631738174926637
 20
0.025843655147763888
 10
0.0017813367585187852
 20
0.025846990881224982
 10
0.0017994933888706064
 20
0.02585036079497894
 10
0.0018176436442253214
 20
0.02585376487708729
 10
0.0018357874602827101
 20
0.025857203115490522
 10
0.0018539247727653587
 20
0.02586067549800812
 10
0.0018720555174188982
 20
0.02586418201233861
 10
0.0018901796300122282
 20
0.02586772264605959
 10
0.001908297046337737
 20
0.025871297386627794
 10
0.001926407702211542
 20
0.025874906221379116
 10
0.00194451153347371
 20
0.025878549137528684
 10
0.001962608475988479
 20
0.02588222612217088
 10
0.0019806984656445007
 20
0.025885937162279375
 10
0.0019987814383550487
 20
0.025889682244707217
 10
0.002016857330058262
 20
0.025893461356186843
 10
0.0020349260767173645
 20
0.025897274483330138
 10
0.002052987614320893
 20
0.025901121612628485
 10
0.002071041878882917
 20
0.0259050027304528
 10
0.002089088806443282
 20
0.025908917823053587
 10
0.002107128333067817
 20
0.02591286687656101
 10
0.002125160394848575
 20
0.025916849876984893
 10
0.002143184927904054
 20
0.025920866810214823
 10
0.0021612018683794254
 20
0.025924917662020156
 10
0.0021792111524467517
 20
0.025929002418050094
 10
0.0021972127163052283
 20
0.025933121063833726
 10
0.002215206496181392
 20
0.025937273584780082
 10
0.0022331924283293626
 20
0.025941459966178183
 10
0.0022511704490310604
 20
0.025945680193197096
 10
0.0022691404945964287
 20
0.02594993425088598
 10
0.0022871025013636694
 20
0.025954222124174146
 10
0.0023050564056994625
 20
0.02595854379787111
 10
0.0023230021439991874
 20
0.025962899256666637
 10
0.0023409396526871584
 20
0.025967288485130812
 10
0.002358868868216844
 20
0.025971711467714084
 10
0.0023767897270710876
 20
0.025976168188747317
 10
0.002394702165762342
 20
0.025980658632441853
 10
0.002412606120832892
 20
0.025985182782889568
 10
0.0024305015288550694
 20
0.025989740624062924
 10
0.0024483883264314918
 20
0.025994332139815033
 10
0.00246626645019528
 20
0.025998957313879703
 10
0.0024841358368102775
 20
0.02600361612987151
 10
0.0025019964229712898
 20
0.02600830857128584
 10
0.0025198481454042905
 20
0.026013034621498954
 10
0.0025376909408666593
 20
0.026017794263768053
 10
0.0025555247461474004
 20
0.026022587481231343
 10
0.0025733494980673694
 20
0.026027414256908063
 10
0.0025911651334794886
 20
0.026032274573698583
 10
0.002608971589268985
 20
0.026037168414384443
 10
0.002626768802353597
 20
0.026042095761628414
 10
0.0026445567096838136
 20
0.02604705659797457
 10
0.0026623352482430893
 20
0.026052050905848355
 10
0.0026801043550480712
 20
0.026057078667556608
 10
0.002697863967148812
 20
0.02606213986528768
 10
0.0027156140216290114
 20
0.026067234481111447
 10
0.0027333544556062185
 20
0.026072362496979414
 10
0.0027510852062320717
 20
0.02607752389472475
 10
0.0027688062106925137
 20
0.02608271865606237
 10
0.00278651740620801
 20
0.026087946762588986
 10
0.002804218730033781
 20
0.026093208195783184
 10
0.0028219101194600148
 20
0.026098502937005483
 10
0.002839591511812096
 20
0.026103830967498406
 10
0.0028572628444508267
 20
0.02610919226838654
 10
0.002874924054772647
 20
0.026114586820676605
 10
0.002892575080209852
 20
0.02612001460525753
 10
0.0029102158582308257
 20
0.026125475602900503
 10
0.0029278463263402482
 20
0.026130969794259058
 10
0.0029454664220793293
 20
0.026136497159869126
 10
0.002963076083026022
 20
0.026142057680149128
 10
0.002980675246795251
 20
0.026147651335400007
 10
0.0029982638510391187
 20
0.02615327810580534
 10
0.0030158418334471494
 20
0.02615893797143138
 10
0.003033409131746484
 20
0.026164630912227135
 10
0.003050965683702123
 20
0.026170356908024436
 10
0.0030685114271171337
 20
0.026176115938538018
 10
0.003086046299832878
 20
0.02618190798336558
 10
0.0031035702397292217
 20
0.02618773302198786
 10
0.00312108318472477
 20
0.026193591033768726
 10
0.003138585072777072
 20
0.026199481997955208
 10
0.0031560758418828533
 20
0.026205405893677623
 10
0.0031735554300782306
 20
0.0262113626999496
 10
0.0031910237754389243
 20
0.02621735239566819
 10
0.0032084808160804915
 20
0.026223374959613924
 10
0.0032259264901585358
 20
0.02622943037045089
 10
0.0032433607358689246
 20
0.02623551860672682
 10
0.0032607834914480174
 20
0.02624163964687315
 10
0.00327819469517288
 20
0.026247793469205097
 10
0.0032955942853614964
 20
0.026253980051921748
 10
0.003312982200373
 20
0.026260199373106134
 10
0.0033303583786078797
 20
0.026266451410725297
 10
0.003347722758508208
 20
0.026272736142630388
 10
0.003365075278557854
 20
0.026279053546556717
 10
0.0033824158772827032
 20
0.02628540360012386
 10
0.00339974449325087
 20
0.02629178628083572
 10
0.0034170610650729252
 20
0.02629820156608062
 10
0.0034343655314021024
 20
0.02630464943313137
 10
0.003451657830934526
 20
0.026311129859145355
 10
0.0034689379024094203
 20
0.02631764282116461
 10
0.0034862056846093324
 20
0.026324188296115922
 10
0.00350346111636034
 20
0.02633076626081088
 10
0.0035207041365322832
 20
0.026337376691945972
 10
0.003537934684038962
 20
0.02634401956610268
 10
0.0035551526978383706
 20
0.02635069485974754
 10
0.0035723581169329055
 20
0.02635740254923225
 10
0.003589550880369575
 20
0.02636414261079372
 10
0.004051117139272255
 20
0.026545499574496725
 10
0.004511645209221737
 20
0.026726264990725616
 10
0.004971135090218024
 20
0.026906438859480405
 10
0.005429586782261113
 20
0.027086021180761068
 10
0.005887000285351005
 20
0.027265011954567625
 10
0.006343375599487701
 20
0.027443411180900063
 10
0.0067987127246712
 20
0.027621218859758396
 10
0.007253011660901502
 20
0.02779843499114262
 10
0.007706272408178608
 20
0.027975059575052724
 10
0.008158494966502517
 20
0.028151092611488716
 10
0.008609679335873229
 20
0.028326534100450593
 10
0.009059825516290743
 20
0.028501384041938364
 10
0.009508933507755064
 20
0.02867564243595203
 10
0.009957003310266183
 20
0.02884930928249157
 10
0.01040403492382411
 20
0.029022384581557
 10
0.010850028348428836
 20
0.029194868333148317
 10
0.011294983584080369
 20
0.029366760537265515
 10
0.011738900630778704
 20
0.029538061193908616
 10
0.012181779488523841
 20
0.0297087703030776
 10
0.012623620157315782
 20
0.029878887864772465
 10
0.013064422637154526
 20
0.03004841387899322
 10
0.013504186928040073
 20
0.030217348345739865
 10
0.013942913029972425
 20
0.030385691265012407
 10
0.01438060094295158
 20
0.030553442636810823
 10
0.014817250666977536
 20
0.03072060246113513
 10
0.015252862202050297
 20
0.030887170737985324
 10
0.01568743554816986
 20
0.03105314746736141
 10
0.016120970705336232
 20
0.031218532649263376
 10
0.0165534676735494
 20
0.03138332628369123
 10
0.016984926452809374
 20
0.03154752837064498
 10
0.01741534704311615
 20
0.031711138910124614
 10
0.017844729444469732
 20
0.031874157902130135
 10
0.018273073656870115
 20
0.03203658534666154
 10
0.0187003796803173
 20
0.03219842124371884
 10
0.01912664751481129
 20
0.03235966559330202
 10
0.019551877160352085
 20
0.03252031839541109
 10
0.019976068616939676
 20
0.03268037965004605
 10
0.020399221884574076
 20
0.0328398493572069
 10
0.02082133696325528
 20
0.032998727516893624
 10
0.02124241385298329
 20
0.03315701412910625
 10
0.021662452553758094
 20
0.03331470919384476
 10
0.02208145306557971
 20
0.033471812711109154
 10
0.022499415388448126
 20
0.03362832468089944
 10
0.02291633952236334
 20
0.03378424510321561
 10
0.023332225467325367
 20
0.03393957397805767
 10
0.023747073223334192
 20
0.03409431130542562
 10
0.024160882790389818
 20
0.03424845708531945
 10
0.02457365416849225
 20
0.03440201131773917
 10
0.024985387357641487
 20
0.034554974002684785
 10
0.02539608235783752
 20
0.03470734514015628
 10
0.02580573916908037
 20
0.034859124730153665
 10
0.026214357791370012
 20
0.03501031277267694
 10
0.02662193822470646
 20
0.0351609092677261
 10
0.027028480469089712
 20
0.035310914215301144
 10
0.027433984524519773
 20
0.03546032761540209
 10
0.027838450390996625
 20
0.0356091494680289
 10
0.028241878068520288
 20
0.035757379773181615
 10
0.02864426755709075
 20
0.035905018530860214
 10
0.029045618856708016
 20
0.0360520657410647
 10
0.029445931967372094
 20
0.03619852140379507
 10
0.02984520688908296
 20
0.03634438551905133
 10
0.03024344362184064
 20
0.03648965808683348
 10
0.03064064216564512
 20
0.03663433910714152
 10
0.031036802520496405
 20
0.03677842857997544
 10
0.0314319246863945
 20
0.036921926505335254
 10
0.031826008663339386
 20
0.03706483288322095
 10
0.03221905445133108
 20
0.03720714771363254
 10
0.03261106205036957
 20
0.037348870996570006
 10
0.03300203146045487
 20
0.03749000273203337
 10
0.033391962681586985
 20
0.037630542920022624
 10
0.033780855713765885
 20
0.03777049156053775
 10
0.0341687105569916
 20
0.037909848653578784
 10
0.034555527211264106
 20
0.038048614199145694
 10
0.03494130567658342
 20
0.03818678819723849
 10
0.035326045952949546
 20
0.03832437064785718
 10
0.03570974804036246
 20
0.03846136155100175
 10
0.03609241193882219
 20
0.03859776090667222
 10
0.036474037648328725
 20
0.03873356871486856
 10
0.03685462516888205
 20
0.0388687849755908
 10
0.03723417450048219
 20
0.03900340968883893
 10
0.037612685643129126
 20
0.03913744285461294
 10
0.037990158596822865
 20
0.03927088447291284
 10
0.03836659336156342
 20
0.03940373454373863
 10
0.038741989937350764
 20
0.0395359930670903
 10
0.039116348324184924
 20
0.03966766004296787
 10
0.03948966852206587
 20
0.03979873547137132
 10
0.03986195053099363
 20
0.039929219352300656
 10
0.0402331943509682
 20
0.040059111685755884
 10
0.04060339998198955
 20
0.04018841247173699
 10
0.04097256742405773
 20
0.040317121710244
 10
0.041340696677172696
 20
0.04044523940127688
 10
0.04170778774133447
 20
0.04057276554483566
 10
0.042073840616543054
 20
0.04069970014092032
 10
0.04243885530279843
 20
0.04082604318953087
 10
0.042802831800100624
 20
0.040951794690667315
 10
0.0431657701084496
 20
0.04107695464432964
 10
0.04352767022784539
 20
0.04120152305051785
 10
0.04388853215828799
 20
0.041325499909231955
 10
0.04424835589977738
 20
0.04144888522047194
 10
0.04460714145231358
 20
0.04157167898423782
 10
0.04496488881589658
 20
0.04169388120052958
 10
0.045321597990526395
 20
0.041815491869347236
 10
0.04567726897620301
 20
0.041936510990690776
 10
0.046031901772926424
 20
0.042056938564560206
 10
0.04638549638069664
 20
0.04217677459095552
 10
0.04673805279951365
 20
0.04229601906987672
 10
0.04708957102937748
 20
0.04241467200132382
 10
0.047440051070288106
 20
0.04253273338529679
 10
0.04778949292224555
 20
0.04265020322179565
 10
0.04813789658524978
 20
0.04276708151082041
 10
0.0484852620593008
 20
0.042883368252371046
 10
0.04883158934439864
 20
0.04299906344644758
 10
0.04917687844054329
 20
0.04311416709304999
 10
0.049521129347734734
 20
0.04322867919217829
 10
0.049864342065973
 20
0.043342599743832484
 10
0.05020651659525804
 20
0.043455928748012566
 10
0.05054765293558989
 20
0.043568666204718526
 10
0.05088775108696855
 20
0.043680812113950376
 10
0.051226811049394014
 20
0.043792366475708125
 10
0.05156483282286628
 20
0.04390332928999175
 10
0.051901816407385344
 20
0.04401370055680127
 10
0.05223776180295122
 20
0.044123480276136676
 10
0.052572669009563894
 20
0.04423266844799796
 10
0.05290653802722338
 20
0.044341265072385144
 10
0.05323936885592966
 20
0.04444927014929821
 10
0.05357116149568274
 20
0.04455668367873716
 10
0.05390191594648263
 20
0.044663505660702006
 10
0.05423163220832932
 20
0.04476973609519273
 10
0.054560310281222824
 20
0.04487537498220935
 10
0.05488795016516312
 20
0.04498042232175186
 10
0.055214551860150216
 20
0.04508487811382025
 10
0.05554011536618411
 20
0.045188742358414524
 10
0.05586464068326483
 20
0.04529201505553469
 10
0.05618812781139233
 20
0.045394696205180746
 10
0.05651057675056666
 20
0.045496785807352697
 10
0.05683198750078776
 20
0.04559828386205052
 10
0.05715236006205569
 20
0.04569919036927424
 10
0.05747169443437042
 20
0.04579950532902385
 10
0.05778999061773194
 20
0.04589922874129934
 10
0.058107248612140276
 20
0.04599836060610072
 10
0.05842346841759541
 20
0.04609690092342799
 10
0.05873865003409734
 20
0.046194849693281144
 10
0.059052793461646075
 20
0.04629220691566018
 10
0.05936589870024162
 20
0.04638897259056511
 10
0.059677965749883974
 20
0.04648514671799593
 10
0.05998899461057311
 20
0.046580729297952636
 10
0.06029898528230907
 20
0.04667572033043524
 10
0.06060793776509184
 20
0.04677011981544372
 10
0.06091585205892139
 20
0.04686392775297808
 10
0.06122272816379776
 20
0.046957144143038344
 10
0.06152856607972092
 20
0.047049768985624484
 10
0.061833365806690896
 20
0.047141802280736514
 10
0.062137127344707666
 20
0.047233244028374435
 10
0.06243985069377124
 20
0.04732409422853825
 10
0.06274153585388162
 20
0.047414352881227945
 10
0.0630421828250388
 20
0.04750401998644352
 10
0.06334179160724278
 20
0.047593095544184984
 10
0.06364036220049357
 20
0.04768157955445235
 10
0.06393789460479116
 20
0.047769472017245594
 10
0.06423438882013556
 20
0.047856772932564726
 10
0.06452984484652677
 20
0.04794348230040975
 10
0.06482426268396477
 20
0.04802960012078065
 10
0.06511764233244957
 20
0.048115126393677446
 10
0.06540998379198118
 20
0.048200061119100135
 10
0.0657012870625596
 20
0.0482844042970487
 10
0.0659915521441848
 20
0.04836815592752315
 10
0.06628077903685682
 20
0.04845131601052351
 10
0.06656896774057564
 20
0.04853388454604974
 10
0.06685611825534127
 20
0.048615861534101856
 10
0.06714223058115369
 20
0.048697246974679864
 10
0.06742730471801292
 20
0.04877804086778376
 10
0.06771134066591895
 20
0.048858243213413546
 10
0.06799433842487179
 20
0.048937854011569214
 10
0.06827629799487143
 20
0.04901687326225077
 10
0.06855721937591788
 20
0.04909530096545822
 10
0.06883710256801112
 20
0.04917313712119155
 10
0.06911594757115117
 20
0.04925038172945077
 10
0.06939375438533803
 20
0.04932703479023588
 10
0.06967052301057168
 20
0.04940309630354688
 10
0.06994625344685215
 20
0.04947856626938377
 10
0.07022094569417942
 20
0.04955344468774654
 10
0.07049459975255347
 20
0.049627731558635195
 10
0.07076721562197434
 20
0.049701426882049746
 10
0.07103879330244202
 20
0.049774530657990174
 10
0.0713093327939565
 20
0.04984704288645651
 10
0.07157883409651777
 20
0.04991896356744871
 10
0.07184729721012585
 20
0.049990292700966804
 10
0.07211472213478075
 20
0.05006103028701079
 10
0.07238110887048244
 20
0.050131176325580666
 10
0.07264645741723093
 20
0.05020073081667643
 10
0.07291076777502623
 20
0.05026969376029807
 10
0.07317403994386831
 20
0.0503380651564456
 10
0.07343627392375722
 20
0.050405845005119035
 10
0.07369746971469293
 20
0.05047303330631833
 10
0.07395762731667545
 20
0.05053963006004354
 10
0.07421674672970476
 20
0.05060563526629463
 10
0.07447482795378087
 20
0.0506710489250716
 10
0.07473187098890378
 20
0.05073587103637446
 10
0.0749878758350735
 20
0.05080010160020321
  0
LINE
  5
30
330
17
100
AcDbEntity
  8
0
100
AcDbLine
 10
-0.48152434721970205
 20
0.0
 30
0.0
 11
0.0749878758350735
 21
0.0
 31
0.0
  0
ENDSEC
  0
SECTION
  2
OBJECTS
  0
DICTIONARY
  5
A
330
0
100
AcDbDictionary
281
1
  3
ACAD_COLOR
350
B
  3
ACAD_GROUP
350
C
  3
ACAD_LAYOUT
350
D
  3
ACAD_MATERIAL
350
E
  3
ACAD_MLEADERSTYLE
350
F
  3
ACAD_MLINESTYLE
350
10
  3
ACAD_PLOTSETTINGS
350
11
  3
ACAD_PLOTSTYLENAME
350
12
  3
ACAD_SCALELIST
350
14
  3
ACAD_TABLESTYLE
350
15
  3
ACAD_VISUALSTYLE
350
16
  3
EZDXF_META
350
2D
  0
DICTIONARY
  5
B
330
A
100
AcDbDictionary
281
1
  0
DICTIONARY
  5
C
330
A
100
AcDbDictionary
281
1
  0
DICTIONARY
  5
D
330
A
100
AcDbDictionary
281
1
  3
Model
350
1A
  3
Layout1
350
1E
  0
DICTIONARY
  5
E
330
A
100
AcDbDictionary
281
1
  3
ByBlock
350
1F
  3
ByLayer
350
20
  3
Global
350
21
  0
DICTIONARY
  5
F
330
A
100
AcDbDictionary
281
1
  3
Standard
350
2C
  0
DICTIONARY
  5
10
330
A
100
AcDbDictionary
281
1
  3
Standard
350
22
  0
DICTIONARY
  5
11
330
A
100
AcDbDictionary
281
1
  0
ACDBDICTIONARYWDFLT
  5
12
330
A
100
AcDbDictionary
281
1
  3
Normal
350
13
100
AcDbDictionaryWithDefault
340
13
  0
ACDBPLACEHOLDER
  5
13
330
12
  0
DICTIONARY
  5
14
330
A
100
AcDbDictionary
281
1
  0
DICTIONARY
  5
15
330
A
100
AcDbDictionary
281
1
  0
DICTIONARY
  5
16
330
A
100
AcDbDictionary
281
1
  0
LAYOUT
  5
1A
330
D
100
AcDbPlotSettings
  1

  4
A3
  6

 40
7.5
 41
20.0
 42
7.5
 43
20.0
 44
420.0
 45
297.0
 46
0.0
 47
0.0
 48
0.0
 49
0.0
140
0.0
141
0.0
142
1.0
143
1.0
 70
1024
 72
1
 73
0
 74
5
  7

 75
16
 76
0
 77
2
 78
300
147
1.0
148
0.0
149
0.0
100
AcDbLayout
  1
Model
 70
1
 71
0
 10
0.0
 20
0.0
 11
420.0
 21
297.0
 12
0.0
 22
0.0
 32
0.0
 14
1e+20
 24
1e+20
 34
1e+20
 15
-1e+20
 25
-1e+20
 35
-1e+20
146
0.0
 13
0.0
 23
0.0
 33
0.0
 16
1.0
 26
0.0
 36
0.0
 17
0.0
 27
1.0
 37
0.0
 76
1
330
17
  0
LAYOUT
  5
1E
330
D
100
AcDbPlotSettings
  1

  4
A3
  6

 40
7.5
 41
20.0
 42
7.5
 43
20.0
 44
420.0
 45
297.0
 46
0.0
 47
0.0
 48
0.0
 49
0.0
140
0.0
141
0.0
142
1.0
143
1.0
 70
0
 72
1
 73
0
 74
5
  7

 75
16
 76
0
 77
2
 78
300
147
1.0
148
0.0
149
0.0
100
AcDbLayout
  1
Layout1
 70
1
 71
1
 10
0.0
 20
0.0
 11
420.0
 21
297.0
 12
0.0
 22
0.0
 32
0.0
 14
1e+20
 24
1e+20
 34
1e+20
 15
-1e+20
 25
-1e+20
 35
-1e+20
146
0.0
 13
0.0
 23
0.0
 33
0.0
 16
1.0
 26
0.0
 36
0.0
 17
0.0
 27
1.0
 37
0.0
 76
1
330
1B
  0
MATERIAL
  5
1F
102
{ACAD_REACTORS
330
E
102
}
330
E
100
AcDbMaterial
  1
ByBlock
  2

 70
0
 40
1.0
 71
1
 41
1.0
 91
-1023410177
 42
1.0
 72
1
  3

 73
1
 74
1
 75
1
 44
0.5
 73
0
 45
1.0
 46
1.0
 77
1
  4

 78
1
 79
1
170
1
 48
1.0
171
1
  6

172
1
173
1
174
1
140
1.0
141
1.0
175
1
  7

176
1
177
1
178
1
143
1.0
179
1
  8

270
1
271
1
272
1
145
1.0
146
1.0
273
1
  9

274
1
275
1
276
1
 42
1.0
 72
1
  3

 73
1
 74
1
 75
1
 94
63
  0
MATERIAL
  5
20
102
{ACAD_REACTORS
330
E
102
}
330
E
100
AcDbMaterial
  1
ByLayer
  2

 70
0
 40
1.0
 71
1
 41
1.0
 91
-1023410177
 42
1.0
 72
1
  3

 73
1
 74
1
 75
1
 44
0.5
 73
0
 45
1.0
 46
1.0
 77
1
  4

 78
1
 79
1
170
1
 48
1.0
171
1
  6

172
1
173
1
174
1
140
1.0
141
1.0
175
1
  7

176
1
177
1
178
1
143
1.0
179
1
  8

270
1
271
1
272
1
145
1.0
146
1.0
273
1
  9

274
1
275
1
276
1
 42
1.0
 72
1
  3

 73
1
 74
1
 75
1
 94
63
  0
MATERIAL
  5
21
102
{ACAD_REACTORS
330
E
102
}
330
E
100
AcDbMaterial
  1
Global
  2

 70
0
 40
1.0
 71
1
 41
1.0
 91
-1023410177
 42
1.0
 72
1
  3

 73
1
 74
1
 75
1
 44
0.5
 73
0
 45
1.0
 46
1.0
 77
1
  4

 78
1
 79
1
170
1
 48
1.0
171
1
  6

172
1
173
1
174
1
140
1.0
141
1.0
175
1
  7

176
1
177
1
178
1
143
1.0
179
1
  8

270
1
271
1
272
1
145
1.0
146
1.0
273
1
  9

274
1
275
1
276
1
 42
1.0
 72
1
  3

 73
1
 74
1
 75
1
 94
63
  0
MLINESTYLE
  5
22
102
{ACAD_REACTORS
330
10
102
}
330
10
100
AcDbMlineStyle
  2
Standard
 70
0
  3

 62
256
 51
90.0
 52
90.0
 71
2
 49
0.5
 62
256
  6
BYLAYER
 49
-0.5
 62
256
  6
BYLAYER
  0
MLEADERSTYLE
  5
2C
102
{ACAD_REACTORS
330
F
102
}
330
F
100
AcDbMLeaderStyle
179
2
170
2
171
1
172
0
 90
2
 40
0.0
 41
0.0
173
1
 91
-1056964608
 92
-2
290
1
 42
2.0
291
1
 43
8.0
  3
Standard
 44
4.0
300

342
29
174
1
175
1
176
0
178
1
 93
-1056964608
 45
4.0
292
0
297
0
 46
4.0
 94
-1056964608
 47
1.0
 49
1.0
140
1.0
294
1
141
0.0
177
0
142
1.0
295
0
296
0
143
3.75
271
0
272
9
273
9
  0
DICTIONARY
  5
2D
330
A
100
AcDbDictionary
280
1
281
1
  3
CREATED_BY_EZDXF
350
2E
  3
WRITTEN_BY_EZDXF
350
33
  0
DICTIONARYVAR
  5
2E
330
2D
100
DictionaryVariables
280
0
  1
1.4.3 @ 2025-11-15T09:19:56.673258+00:00
  0
DICTIONARYVAR
  5
33
330
2D
100
DictionaryVariables
280
0
  1
1.4.3 @ 2025-11-15T09:19:56.681092+00:00
  0
ENDSEC
  0
EOF
